<svg width="509" height="111" viewBox="0 0 509 111" fill="none" xmlns="http://www.w3.org/2000/svg">
<path d="M183.784 27.2455V77.2067H175.777V27.2455H183.784Z" fill="black"/>
<path d="M327.777 56.5595V77.2067H319.786V57.8941C319.844 56.8118 319.684 55.7288 319.313 54.7102C318.943 53.6916 318.37 52.7584 317.63 51.9668C316.889 51.1753 315.996 50.5416 315.005 50.104C314.013 49.6664 312.943 49.4339 311.859 49.4204C310.775 49.407 309.7 49.6129 308.698 50.0257C307.696 50.4386 306.787 51.0498 306.027 51.8228C305.268 52.5957 304.672 53.5144 304.276 54.5234C303.881 55.5325 303.693 56.6112 303.725 57.6947V77.2067H295.733V57.8941C295.814 56.8031 295.663 55.7073 295.291 54.6786C294.919 53.6499 294.333 52.7115 293.573 51.925C292.812 51.1385 291.894 50.5216 290.878 50.1149C289.863 49.7081 288.773 49.5206 287.68 49.5647C286.599 49.5741 285.531 49.8005 284.539 50.2306C283.548 50.6606 282.653 51.2855 281.907 52.0681C281.162 52.8508 280.581 53.7752 280.2 54.7865C279.819 55.7979 279.645 56.8755 279.688 57.9554V77.2067H271.696V42.8459H279.688V46.7728C280.951 45.3026 282.523 44.1283 284.291 43.333C286.059 42.5377 287.981 42.141 289.919 42.1709C292.166 42.1193 294.389 42.628 296.39 43.6511C298.391 44.6741 300.105 46.1793 301.378 48.0307C302.773 46.188 304.581 44.6981 306.656 43.6805C308.731 42.6629 311.016 42.1458 313.328 42.1709C315.241 42.0936 317.149 42.4124 318.933 43.1073C320.717 43.8023 322.338 44.8583 323.695 46.2093C325.052 47.5602 326.115 49.177 326.817 50.958C327.52 52.7391 327.847 54.6462 327.777 56.5595V56.5595Z" fill="black"/>
<path d="M354.008 42.171V50.6384C346.338 50.1015 342.427 54.1052 342.427 59.3667V77.2067H334.404V42.8459H342.396V47.7086C343.785 45.9654 345.552 44.5609 347.564 43.6015C349.576 42.6421 351.779 42.1529 354.008 42.171V42.171Z" fill="black"/>
<path d="M390.256 62.8948H363.212C363.722 65.2006 365.03 67.2524 366.904 68.6891C368.779 70.1257 371.1 70.8551 373.459 70.7487C375.417 70.8247 377.357 70.3468 379.055 69.37C380.754 68.3931 382.142 66.957 383.062 65.2264L389.719 68.0182C388.285 70.9992 386.032 73.5101 383.223 75.2569C380.414 77.0037 377.165 77.9141 373.858 77.8816C362.936 77.8816 355.45 69.951 355.45 60.0263C355.398 57.6764 355.821 55.3401 356.693 53.1574C357.565 50.9747 358.869 48.9905 360.526 47.3234C362.183 45.6563 364.16 44.3408 366.337 43.4554C368.514 42.5701 370.848 42.1332 373.198 42.171C383.062 42.171 392.25 50.3623 390.256 62.8948ZM363.273 56.8357H383.062C382.521 54.6825 381.276 52.7717 379.525 51.407C377.774 50.0423 375.618 49.3021 373.398 49.3039C371.109 49.2389 368.866 49.9467 367.029 51.3132C365.192 52.6797 363.869 54.6251 363.273 56.8357V56.8357Z" fill="black"/>
<path d="M430.752 42.8459V77.2067H422.745V72.6048C421.345 74.2921 419.581 75.6415 417.587 76.5525C415.592 77.4635 413.417 77.9126 411.225 77.8663C401.638 77.8663 394.505 70.534 394.505 60.011C394.505 49.488 401.638 42.171 411.225 42.171C413.417 42.1247 415.592 42.5738 417.587 43.4848C419.581 44.3958 421.345 45.7452 422.745 47.4325V42.8306L430.752 42.8459ZM422.745 60.0263C422.801 58.6602 422.581 57.2968 422.097 56.0178C421.614 54.7387 420.878 53.5703 419.933 52.5822C418.988 51.5942 417.853 50.8068 416.597 50.2673C415.341 49.7277 413.988 49.447 412.621 49.442C406.761 49.442 402.635 54.1666 402.635 60.0263C402.635 65.8861 406.761 70.626 412.621 70.626C413.989 70.6189 415.342 70.3363 416.598 69.795C417.854 69.2538 418.989 68.465 419.934 67.4758C420.879 66.4865 421.614 65.317 422.098 64.0371C422.581 62.7573 422.801 61.3932 422.745 60.0263V60.0263Z" fill="black"/>
<path d="M436.336 60.0263C436.354 55.8949 437.799 51.8965 440.426 48.7081C443.053 45.5198 446.702 43.3375 450.754 42.5307C454.806 41.7239 459.012 42.3423 462.66 44.281C466.309 46.2198 469.175 49.3599 470.774 53.1695L463.38 55.7005C462.604 53.9127 461.332 52.3847 459.714 51.2973C458.097 50.2099 456.201 49.6086 454.253 49.5647C448.255 49.5647 444.328 54.1666 444.328 60.0263C444.215 62.4043 444.957 64.7441 446.42 66.6227C447.882 68.5013 449.968 69.7947 452.301 70.269C454.634 70.7434 457.059 70.3674 459.139 69.209C461.219 68.0507 462.816 66.1864 463.641 63.9532L470.835 66.7144C469.519 70.0709 467.203 72.9421 464.202 74.9394C461.2 76.9368 457.658 77.9638 454.053 77.8816C451.703 77.926 449.368 77.4934 447.189 76.6101C445.01 75.7267 443.033 74.4108 441.377 72.742C439.721 71.0731 438.421 69.0859 437.554 66.9004C436.688 64.7149 436.274 62.3765 436.336 60.0263V60.0263Z" fill="black"/>
<path d="M509 57.2958V77.2373H501.008V58.5537C501.082 57.371 500.907 56.1859 500.494 55.0752C500.081 53.9644 499.44 52.9527 498.611 52.1055C497.783 51.2582 496.786 50.5943 495.685 50.1566C494.583 49.7189 493.402 49.5172 492.218 49.5646C491.02 49.5439 489.829 49.7704 488.722 50.23C487.614 50.6896 486.613 51.3725 485.781 52.2361C484.949 53.0997 484.304 54.1254 483.886 55.2493C483.469 56.3732 483.287 57.5711 483.352 58.7684V77.2067H475.36V27.2455H483.352V47.3097C484.694 45.6962 486.376 44.3989 488.277 43.5106C490.178 42.6222 492.252 42.1648 494.351 42.1709C502.281 42.1709 509 47.7699 509 57.2958Z" fill="black"/>
<path d="M141.554 45.2389V27.2455H133.562V77.2067H141.554V74.7677C144.483 76.6129 147.88 77.5767 151.341 77.5441C153.643 77.5523 155.927 77.1309 158.075 76.3016C161.202 74.8724 163.851 72.573 165.705 69.6784C167.56 66.7838 168.542 63.4164 168.534 59.9786C168.526 56.5407 167.528 53.178 165.66 50.2921C163.791 47.4063 161.132 45.1194 157.998 43.7049C155.863 42.8895 153.596 42.4735 151.31 42.4777C147.86 42.4369 144.471 43.3959 141.554 45.2389V45.2389ZM150.405 70.4419C148.588 70.4669 146.799 69.9887 145.237 69.06C143.675 68.1314 142.4 66.7887 141.554 65.1804C140.718 63.5855 140.282 61.8116 140.282 60.0109C140.282 58.2102 140.718 56.4364 141.554 54.8415C142.396 53.2275 143.669 51.8785 145.232 50.9442C146.794 50.01 148.585 49.5272 150.405 49.5493C151.762 49.5528 153.105 49.8283 154.354 50.3595C155.603 50.8907 156.733 51.6669 157.676 52.6422C158.62 53.6175 159.359 54.7721 159.849 56.0377C160.339 57.3033 160.57 58.6544 160.529 60.0109C160.572 61.3688 160.343 62.7214 159.854 63.9889C159.365 65.2563 158.626 66.4127 157.682 67.3896C156.738 68.3666 155.608 69.1441 154.358 69.6763C153.108 70.2085 151.764 70.4845 150.405 70.4879V70.4419Z" fill="black"/>
<path d="M189.705 60.0263C189.654 56.4326 190.672 52.9048 192.631 49.8915C194.59 46.8782 197.401 44.5157 200.706 43.1044C204.012 41.6932 207.662 41.297 211.193 41.9663C214.724 42.6356 217.977 44.3401 220.536 46.863C223.096 49.3859 224.848 52.6131 225.568 56.1342C226.289 59.6554 225.945 63.3112 224.582 66.6367C223.219 69.9622 220.897 72.8071 217.913 74.8095C214.928 76.8119 211.416 77.8813 207.822 77.8817C205.445 77.9546 203.078 77.5446 200.864 76.6764C198.651 75.8083 196.636 74.5 194.942 72.8309C193.249 71.1617 191.912 69.1663 191.011 66.9654C190.111 64.7645 189.667 62.4039 189.705 60.0263V60.0263ZM207.822 70.4879C209.179 70.4845 210.521 70.209 211.77 69.6777C213.019 69.1465 214.149 68.3703 215.093 67.395C216.037 66.4198 216.775 65.2652 217.265 63.9995C217.755 62.7339 217.987 61.3829 217.946 60.0263C217.946 58.6968 217.684 57.3803 217.175 56.152C216.666 54.9236 215.921 53.8076 214.98 52.8674C214.04 51.9273 212.924 51.1816 211.696 50.6728C210.468 50.164 209.151 49.9022 207.822 49.9022C206.492 49.9022 205.176 50.164 203.947 50.6728C202.719 51.1816 201.603 51.9273 200.663 52.8674C199.723 53.8076 198.977 54.9236 198.468 56.152C197.959 57.3803 197.697 58.6968 197.697 60.0263C197.65 61.3845 197.877 62.7383 198.365 64.0068C198.852 65.2753 199.591 66.4324 200.536 67.409C201.481 68.3856 202.613 69.1616 203.865 69.6907C205.117 70.2197 206.463 70.4908 207.822 70.4879V70.4879Z" fill="black"/>
<path d="M229.926 60.0263C229.871 56.4289 230.888 52.8967 232.846 49.8789C234.805 46.861 237.617 44.4942 240.925 43.0794C244.233 41.6647 247.887 41.266 251.422 41.9341C254.957 42.6022 258.214 44.3069 260.777 46.8313C263.341 49.3557 265.095 52.5856 265.818 56.1101C266.54 59.6346 266.197 63.2943 264.833 66.6235C263.47 69.9527 261.146 72.8009 258.159 74.8057C255.171 76.8105 251.655 77.8812 248.057 77.8816C245.68 77.9545 243.312 77.5445 241.098 76.6765C238.883 75.8086 236.868 74.5006 235.173 72.8316C233.478 71.1627 232.139 69.1674 231.238 66.9665C230.336 64.7655 229.89 62.4045 229.926 60.0263V60.0263ZM248.057 70.4879C249.415 70.4844 250.757 70.2089 252.006 69.6777C253.255 69.1465 254.385 68.3703 255.329 67.395C256.272 66.4197 257.011 65.2651 257.501 63.9995C257.991 62.7339 258.222 61.3828 258.181 60.0263C258.181 58.6967 257.92 57.3802 257.411 56.1519C256.902 54.9236 256.156 53.8075 255.216 52.8674C254.276 51.9273 253.16 51.1815 251.932 50.6728C250.703 50.164 249.387 49.9021 248.057 49.9021C246.728 49.9021 245.411 50.164 244.183 50.6728C242.955 51.1815 241.839 51.9273 240.898 52.8674C239.958 53.8075 239.213 54.9236 238.704 56.1519C238.195 57.3802 237.933 58.6967 237.933 60.0263C237.886 61.3845 238.113 62.7383 238.6 64.0068C239.088 65.2753 239.827 66.4324 240.772 67.409C241.717 68.3856 242.849 69.1616 244.101 69.6906C245.353 70.2196 246.698 70.4908 248.057 70.4879V70.4879Z" fill="black"/>
<path d="M55.1307 111.015C85.5785 111.015 110.261 86.3324 110.261 55.8846C110.261 25.4367 85.5785 0.753906 55.1307 0.753906C24.6828 0.753906 0 25.4367 0 55.8846C0 86.3324 24.6828 111.015 55.1307 111.015Z" fill="#FFD500"/>
<path d="M66.2979 44.4259L63.5982 51.3747C65.0348 52.3094 66.2107 53.5935 67.0156 55.1066C67.8205 56.6198 68.228 58.3126 68.2001 60.0263C68.2001 62.6219 67.169 65.1112 65.3336 66.9465C63.4982 68.7819 61.009 69.813 58.4134 69.813C55.8178 69.813 53.3285 68.7819 51.4931 66.9465C49.6578 65.1112 48.6267 62.6219 48.6267 60.0263C48.5691 58.7386 48.7673 57.4523 49.2098 56.2416C49.6523 55.031 50.3303 53.9201 51.2046 52.973C52.079 52.0259 53.1323 51.2615 54.3038 50.7239C55.4753 50.1862 56.7417 49.8861 58.0299 49.8408L60.5609 42.7845C58.143 42.3903 55.6682 42.5273 53.3085 43.1861C50.9488 43.8449 48.7609 45.0095 46.8968 46.5992C45.0327 48.1889 43.5372 50.1654 42.514 52.3914C41.4909 54.6174 40.9648 57.0395 40.9722 59.4894V77.2067H48.642V74.3842C51.5665 76.2396 54.9654 77.2092 58.4287 77.176C62.3514 77.2299 66.1757 75.9469 69.2721 73.5379C72.3685 71.129 74.5526 67.7377 75.465 63.9221C76.3774 60.1066 75.9637 56.0941 74.2919 52.545C72.6202 48.9959 69.7901 46.1216 66.2673 44.3952L66.2979 44.4259Z" fill="#002840"/>
<path d="M40.9415 43.5822C43.1298 41.3518 45.7361 39.5744 48.6113 38.3514V27.2455H40.9415V43.5822Z" fill="#002840"/>
</svg>
